#!OML:ASF H:\Dans Jumps\Project 1\Capture day 1\Session 1\subject.ASF
:FULLY-SPECIFIED
:DEGREES
290
root 0.107652 14.8812 -16.0261 21.2661 -0.975667 -2.47737
lowerback 16.7743 0.578085 -0.411263
upperback 6.91166 0.75974 2.21015
thorax -2.07189 0.334928 2.41987
lowerneck -17.6938 -0.0832235 -2.2959
upperneck 4.79922 0.395882 0.0404
head 4.25818 0.149063 0.412932
rclavicle -4.96962e-015 9.14409e-015
rhumerus -48.2794 -19.3565 -65.4346
rradius 21.9585
rwrist 33.979
rhand -17.1306 -24.7154
rfingers 7.12502
rthumb 9.10929 -54.4987
lclavicle -4.96962e-015 9.14409e-015
lhumerus -46.7141 1.78684 84.2666
lradius 16.3553
lwrist 11.1954
lhand -26.7681 -4.89047
lfingers 7.12502
lthumb -0.196092 25.0892
rfemur -66.2318 -1.22368 20.7874
rtibia 72.7989
rfoot -28.3595 -9.44806
rtoes -2.36314
lfemur -65.7295 8.21085 -18.9313
ltibia 72.991
lfoot -25.0904 14.2533
ltoes -14.5539
291
root 0.103186 14.8097 -16.0446 21.6365 -0.974625 -2.43694
lowerback 17.0917 0.613645 -0.522405
upperback 6.88919 0.791021 2.21136
thorax -2.26462 0.349917 2.47772
lowerneck -17.8187 -0.105688 -2.28792
upperneck 4.50475 0.366096 0.0324726
head 4.18587 0.136466 0.406345
rclavicle -8.34896e-015 -1.51076e-014
rhumerus -48.889 -19.5311 -65.0012
rradius 21.8482
rwrist 34.1499
rhand -17.0183 -24.6357
rfingers 7.12502
rthumb 9.21768 -54.4143
lclavicle -8.34896e-015 -1.51076e-014
lhumerus -47.2662 1.98787 84.1384
lradius 16.137
lwrist 10.9546
lhand -26.2118 -4.49643
lfingers 7.12502
lthumb 0.341182 25.483
rfemur -67.2552 -1.2042 20.7626
rtibia 73.7079
rfoot -28.6335 -9.81148
rtoes -2.09777
lfemur -66.7496 8.21259 -19.0356
ltibia 73.8606
lfoot -25.2759 14.4912
ltoes -14.7758
292
root 0.0985753 14.7402 -16.0622 22.0096 -0.970584 -2.39237
lowerback 17.426 0.646872 -0.630768
upperback 6.85516 0.818991 2.20918
thorax -2.47815 0.363805 2.53086
lowerneck -17.9443 -0.127069 -2.28019
upperneck 4.2183 0.338018 0.0228738
head 4.11615 0.124503 0.399463
rclavicle -5.96354e-015 -1.98785e-015
rhumerus -49.4768 -19.6902 -64.5931
rradius 21.7429
rwrist 34.324
rhand -16.9394 -24.5704
rfingers 7.12502
rthumb 9.2938 -54.3455
lclavicle -5.96354e-015 -1.98785e-015
lhumerus -47.7981 2.1649 84.0125
lradius 15.929
lwrist 10.7356
lhand -25.5944 -4.0647
lfingers 7.12502
lthumb 0.93744 25.913
rfemur -68.2622 -1.19074 20.7387
rtibia 74.5859
rfoot -28.9102 -10.1278
rtoes -1.88644
lfemur -67.7482 8.20522 -19.1398
ltibia 74.6916
lfoot -25.4405 14.7328
ltoes -15.0117
293
root 0.0937483 14.6728 -16.0789 22.3835 -0.961534 -2.3451
lowerback 17.7842 0.677474 -0.735219
upperback 6.80971 0.843462 2.20489
thorax -2.71584 0.376551 2.58004
lowerneck -18.0756 -0.148593 -2.2778
upperneck 3.93553 0.310793 0.0165566
head 4.04837 0.113015 0.394561
rclavicle 4.37326e-015 1.72943e-014
rhumerus -50.0399 -19.8221 -64.2219
rradius 21.6438
rwrist 34.4869
rhand -16.9138 -24.5264
rfingers 7.12502
rthumb 9.31847 -54.3004
lclavicle 4.37326e-015 1.72943e-014
lhumerus -48.3078 2.33217 83.8781
lradius 15.7273
lwrist 10.5042
lhand -25.0332 -3.71016
lfingers 7.12502
lthumb 1.47949 26.2645
rfemur -69.2506 -1.18135 20.7158
rtibia 75.4333
rfoot -29.1854 -10.4125
rtoes -1.73809
lfemur -68.7245 8.18384 -19.238
ltibia 75.4857
lfoot -25.5829 14.9777
ltoes -15.2449
294
root 0.0888992 14.6074 -16.0946 22.7617 -0.943162 -2.30021
lowerback 18.1645 0.703954 -0.826802
upperback 6.74977 0.864085 2.2007
thorax -2.97994 0.388132 2.62262
lowerneck -18.1987 -0.172287 -2.29016
upperneck 3.64656 0.282607 0.023035
head 3.97735 0.101637 0.395927
rclavicle 5.96354e-016 -9.74045e-015
rhumerus -50.582 -19.9351 -63.8787
rradius 21.5513
rwrist 34.6322
rhand -16.92 -24.4937
rfingers 7.12502
rthumb 9.31255 -54.268
lclavicle 5.96354e-016 -9.74045e-015
lhumerus -48.7976 2.49757 83.7309
lradius 15.5294
lwrist 10.2415
lhand -24.6518 -3.52588
lfingers 7.12502
lthumb 1.84789 26.4459
rfemur -70.2215 -1.17762 20.6985
rtibia 76.2488
rfoot -29.4516 -10.6876
rtoes -1.64343
lfemur -69.6834 8.14232 -19.322
ltibia 76.2453
lfoot -25.7026 15.2262
ltoes -15.4571
295
root 0.0840333 14.5442 -16.1095 23.1431 -0.91829 -2.25717
lowerback 18.5709 0.728711 -0.9082
upperback 6.67593 0.883596 2.19698
thorax -3.27216 0.39986 2.66004
lowerneck -18.3229 -0.198195 -2.31243
upperneck 3.35504 0.25302 0.0383859
head 3.90567 0.0899719 0.401535
rclavicle 9.93923e-016 9.93923e-015
rhumerus -51.1017 -20.0452 -63.5534
rradius 21.4617
rwrist 34.7651
rhand -16.945 -24.4696
rfingers 7.12502
rthumb 9.28837 -54.245
lclavicle 9.93923e-016 9.93923e-015
lhumerus -49.2591 2.67684 83.5571
lradius 15.3238
lwrist 9.92943
lhand -24.5333 -3.5699
lfingers 7.12502
lthumb 1.96232 26.4008
rfemur -71.1724 -1.17437 20.683
rtibia 77.0309
rfoot -29.6972 -10.9765
rtoes -1.5907
lfemur -70.622 8.07923 -19.3899
ltibia 76.9701
lfoot -25.8051 15.4717
ltoes -15.6154
296
root 0.0791795 14.4833 -16.1235 23.5302 -0.886159 -2.21463
lowerback 19.0075 0.75208 -0.980906
upperback 6.58551 0.902303 2.19422
thorax -3.5975 0.411933 2.69362
lowerneck -18.4614 -0.2265 -2.34106
upperneck 3.07417 0.221726 0.0601388
head 3.83944 0.0776612 0.410039
rclavicle 1.78906e-015 -4.37326e-015
rhumerus -51.597 -20.1508 -63.2447
rradius 21.3746
rwrist 34.878
rhand -16.9802 -24.4451
rfingers 7.12502
rthumb 9.25445 -54.222
lclavicle 1.78906e-015 -4.37326e-015
lhumerus -49.6878 2.87734 83.3503
lradius 15.1065
lwrist 9.56689
lhand -24.5244 -3.6998
lfingers 7.12502
lthumb 1.97094 26.2708
rfemur -72.1058 -1.17173 20.6669
rtibia 77.7786
rfoot -29.917 -11.2895
rtoes -1.557
lfemur -71.5427 7.98867 -19.441
ltibia 77.6604
lfoot -25.8885 15.7179
ltoes -15.7032
297
root 0.0743221 14.4251 -16.1368 23.9228 -0.844759 -2.17166
lowerback 19.4756 0.774501 -1.04618
upperback 6.47708 0.920747 2.19459
thorax -3.95832 0.424634 2.72632
lowerneck -18.6111 -0.256245 -2.37378
upperneck 2.80913 0.189919 0.0830865
head 3.7798 0.0649833 0.419552
rclavicle 3.18055e-015 6.95746e-015
rhumerus -52.0683 -20.2666 -62.9338
rradius 21.2792
rwrist 34.9983
rhand -17.0044 -24.4143
rfingers 7.12502
rthumb 9.23113 -54.1922
lclavicle 3.18055e-015 6.95746e-015
lhumerus -50.076 3.11224 83.0997
lradius 14.8654
lwrist 9.15004
lhand -24.5611 -3.87247
lfingers 7.12502
lthumb 1.93542 26.0985
rfemur -73.0187 -1.16957 20.6484
rtibia 78.4891
rfoot -30.1093 -11.6249
rtoes -1.52437
lfemur -72.4423 7.86594 -19.4733
ltibia 78.3138
lfoot -25.9557 15.9669
ltoes -15.6945
298
root 0.0692131 14.3699 -16.1494 24.3185 -0.789109 -2.12076
lowerback 19.9774 0.794105 -1.11065
upperback 6.35394 0.935347 2.1985
thorax -4.35218 0.436167 2.76328
lowerneck -18.777 -0.286902 -2.41121
upperneck 2.55938 0.158847 0.104266
head 3.72728 0.0523857 0.429349
rclavicle -1.98785e-016 -7.55382e-015
rhumerus -52.5044 -20.399 -62.6149
rradius 21.1697
rwrist 35.1347
rhand -17.0012 -24.3647
rfingers 7.12502
rthumb 9.23419 -54.1425
lclavicle -1.98785e-016 -7.55382e-015
lhumerus -50.4083 3.39488 82.7953
lradius 14.5931
lwrist 8.67612
lhand -24.5219 -3.99248
lfingers 7.12502
lthumb 1.97336 25.9781
rfemur -73.908 -1.17047 20.6208
rtibia 79.1613
rfoot -30.2766 -11.9747
rtoes -1.48312
lfemur -73.3157 7.7049 -19.4909
ltibia 78.9277
lfoot -26.0015 16.2298
ltoes -15.5549
299
root 0.0635976 14.318 -16.1612 24.7157 -0.715959 -2.06268
lowerback 20.511 0.811059 -1.17386
upperback 6.2193 0.946395 2.20652
thorax -4.77476 0.446667 2.80496
lowerneck -18.9608 -0.318349 -2.44824
upperneck 2.32389 0.127876 0.119586
head 3.68181 0.0394005 0.43728
rclavicle 3.97569e-016 1.23246e-014
rhumerus -52.8999 -20.5581 -62.285
rradius 21.0368
rwrist 35.3086
rhand -17.0102 -24.3122
rfingers 7.12502
rthumb 9.22548 -54.0904
lclavicle 3.97569e-016 1.23246e-014
lhumerus -50.6769 3.72226 82.4353
lradius 14.2951
lwrist 8.15028
lhand -24.3122 -4.01202
lfingers 7.12502
lthumb 2.17581 25.9566
rfemur -74.7688 -1.17144 20.5841
rtibia 79.7936
rfoot -30.4312 -12.3214
rtoes -1.4012
lfemur -74.1583 7.50708 -19.4915
ltibia 79.5004
lfoot -26.0205 16.5308
ltoes -15.2876
300
root 0.0573197 14.2697 -16.1721 25.1123 -0.62445 -1.99731
lowerback 21.0714 0.824353 -1.23567
upperback 6.07796 0.952623 2.21922
thorax -5.21839 0.455455 2.85243
lowerneck -19.1616 -0.349203 -2.48217
upperneck 2.09711 0.0986157 0.12296
head 3.64147 0.0265496 0.441143
rclavicle -3.57812e-015 9.93923e-015
rhumerus -53.2449 -20.7632 -61.9306
rradius 20.8707
rwrist 35.5385
rhand -17.015 -24.2566
rfingers 7.12502
rthumb 9.22082 -54.035
lclavicle -3.57812e-015 9.93923e-015
lhumerus -50.87 4.1145 82.0032
lradius 13.9637
lwrist 7.54179
lhand -24.0382 -3.98355
lfingers 7.12502
lthumb 2.44044 25.9822
rfemur -75.5968 -1.16998 20.538
rtibia 80.3852
rfoot -30.5815 -12.6581
rtoes -1.28734
lfemur -74.966 7.27794 -19.4757
ltibia 80.0321
lfoot -26.015 16.8776
ltoes -14.8868
301
root 0.0502509 14.2249 -16.1817 25.5052 -0.516643 -1.92799
lowerback 21.6538 0.834084 -1.29457
upperback 5.93467 0.954452 2.23644
thorax -5.67542 0.462656 2.90473
lowerneck -19.3728 -0.379176 -2.51227
upperneck 1.86781 0.07089 0.115292
head 3.60175 0.0139096 0.441076
rclavicle -1.63003e-014 -1.2921e-014
rhumerus -53.5325 -21.0188 -61.5532
rradius 20.6658
rwrist 35.8421
rhand -17.058 -24.2058
rfingers 7.12502
rthumb 9.17939 -53.986
lclavicle -1.63003e-014 -1.2921e-014
lhumerus -50.9797 4.58348 81.4862
lradius 13.5968
lwrist 6.82477
lhand -23.74 -3.93461
lfingers 7.12502
lthumb 2.72848 26.0277
rfemur -76.3864 -1.15969 20.4837
rtibia 80.9366
rfoot -30.7403 -12.9749
rtoes -1.12608
lfemur -75.7353 7.02975 -19.4445
ltibia 80.5248
lfoot -25.995 17.2654
ltoes -14.3725
302
root 0.0423592 14.1835 -16.1898 25.8959 -0.396759 -1.86016
lowerback 22.2514 0.841516 -1.34783
upperback 5.78961 0.954183 2.25794
thorax -6.14234 0.469349 2.95967
lowerneck -19.5871 -0.40758 -2.5378
upperneck 1.63457 0.045092 0.0975598
head 3.56111 0.001757 0.4373
rclavicle 9.93923e-016 2.98177e-015
rhumerus -53.7619 -21.3277 -61.1531
rradius 20.4241
rwrist 36.2151
rhand -17.1358 -24.1596
rfingers 7.12502
rthumb 9.1043 -53.9431
lclavicle 9.93923e-016 2.98177e-015
lhumerus -51.0077 5.14678 80.8663
lradius 13.1927
lwrist 5.9547
lhand -23.4339 -3.88682
lfingers 7.12502
lthumb 3.02406 26.0715
rfemur -77.1376 -1.1356 20.4263
rtibia 81.4477
rfoot -30.9094 -13.2777
rtoes -0.944028
lfemur -76.4689 6.77666 -19.3992
ltibia 80.9808
lfoot -25.9679 17.6808
ltoes -13.7943
